<svg width="15" height="20" viewBox="0 0 15 20" fill="none" xmlns="http://www.w3.org/2000/svg"><path d="M13.13 13.13L15 1H11V0H7V1H2C0.9 1 0 1.9 0 3V7C0 8.1 0.9 9 2 9H4.23L4.87 13.13C3.74 14.05 3 15.43 3 17V18C3 19.1 3.9 20 5 20H13C14.1 20 15 19.1 15 18V17C15 15.43 14.26 14.05 13.13 13.13ZM2 7V3H3.31L3.93 7H2ZM12.67 3L11.29 12H6.72L5.33 3H12.67ZM13 18H5V17C5 15.35 6.35 14 8 14H10C11.65 14 13 15.35 13 17V18Z"/><path d="M9 17C9.55228 17 10 16.5523 10 16C10 15.4477 9.55228 15 9 15C8.44771 15 8 15.4477 8 16C8 16.5523 8.44771 17 9 17Z"/></svg>