<?xml version="1.0" encoding="UTF-8"?><!DOCTYPE svg PUBLIC "-//W3C//DTD SVG 1.1//EN" "http://www.w3.org/Graphics/SVG/1.1/DTD/svg11.dtd"><!--Creator: CorelDRAW 2020 (64-Bit)--><svg xmlns="http://www.w3.org/2000/svg" xml:space="preserve" width="59.8986mm" height="86.4306mm" version="1.1" style="shape-rendering:geometricPrecision;text-rendering:geometricPrecision;image-rendering:optimizeQuality;fill-rule:evenodd;clip-rule:evenodd" viewBox="0 0 79.59 114.85" xmlns:xlink="http://www.w3.org/1999/xlink" xmlns:xodm="http://www.corel.com/coreldraw/odm/2003"><defs><style type="text/css"><![CDATA[
    .fil0 {fill:white}
    .fil1 {fill:#456F73;fill-rule:nonzero}
   ]]></style></defs><g id="Слой_x0020_1"><metadata id="CorelCorpID_0Corel-Layer"/><g id="_2564876173456"><circle class="fil0" cx="39.8" cy="39.8" r="35.52"/><g><polygon class="fil1" points="39.8,19.56 45.98,32.12 59.82,34.13 49.81,43.87 52.16,57.66 39.8,51.17 27.41,57.66 29.79,43.87 19.77,34.13 33.61,32.12 "/><g><path class="fil1" d="M39.8 7.81c17.67,0 31.99,14.32 31.99,31.99 0,17.67 -14.32,31.99 -31.99,31.99 -17.67,0 -31.99,-14.32 -31.99,-31.99 0,-17.67 14.32,-31.99 31.99,-31.99l0 0zm0 -7.81c-21.94,0 -39.8,17.86 -39.8,39.8 0,21.94 17.86,39.8 39.8,39.8 21.94,0 39.8,-17.86 39.8,-39.8 0,-21.94 -17.86,-39.8 -39.8,-39.8l0 0z"/></g></g><path class="fil1" d="M35.86 76.36l7.87 0 0 34.56c0,2.17 -1.77,3.94 -3.94,3.94l0 0c-2.17,0 -3.94,-1.77 -3.94,-3.94l0 -34.56z"/></g></g></svg>