<svg width="21" height="21" viewBox="0 0 21 21" fill="none" xmlns="http://www.w3.org/2000/svg"><path d="M3.81771 18.581V17.5006C3.81771 17.0864 3.5656 16.8163 3.13341 16.8163C2.91731 16.8163 2.68321 16.8883 2.52114 17.1224C2.39508 16.9243 2.215 16.8163 1.94489 16.8163C1.76481 16.8163 1.58473 16.8703 1.44067 17.0684V16.8523H1.0625V18.581H1.44067V17.6266C1.44067 17.3205 1.60274 17.1764 1.85485 17.1764C2.10696 17.1764 2.23301 17.3385 2.23301 17.6266V18.581H2.61118V17.6266C2.61118 17.3205 2.79126 17.1764 3.02536 17.1764C3.27747 17.1764 3.40353 17.3385 3.40353 17.6266V18.581H3.81771ZM9.41816 16.8523H8.80589V16.33H8.42773V16.8523H8.08558V17.1944H8.42773V17.9868C8.42773 18.3829 8.5898 18.617 9.02199 18.617C9.18406 18.617 9.36414 18.563 9.49019 18.491L9.38214 18.1668C9.2741 18.2389 9.14804 18.2569 9.058 18.2569C8.87792 18.2569 8.80589 18.1488 8.80589 17.9688V17.1944H9.41816V16.8523ZM12.6236 16.8163C12.4075 16.8163 12.2634 16.9243 12.1734 17.0684V16.8523H11.7952V18.581H12.1734V17.6086C12.1734 17.3205 12.2994 17.1584 12.5335 17.1584C12.6056 17.1584 12.6956 17.1764 12.7676 17.1944L12.8757 16.8343C12.8036 16.8163 12.6956 16.8163 12.6236 16.8163ZM7.77944 16.9963C7.59936 16.8703 7.34725 16.8163 7.07714 16.8163C6.64495 16.8163 6.35682 17.0323 6.35682 17.3745C6.35682 17.6626 6.57291 17.8247 6.95108 17.8787L7.13116 17.8967C7.32925 17.9327 7.43729 17.9868 7.43729 18.0768C7.43729 18.2029 7.29323 18.2929 7.04112 18.2929C6.78901 18.2929 6.59092 18.2029 6.46487 18.1128L6.28479 18.4009C6.48288 18.545 6.75299 18.617 7.02311 18.617C7.52733 18.617 7.81546 18.3829 7.81546 18.0588C7.81546 17.7527 7.58136 17.5906 7.2212 17.5366L7.04112 17.5186C6.87905 17.5006 6.75299 17.4645 6.75299 17.3565C6.75299 17.2304 6.87905 17.1584 7.07714 17.1584C7.29323 17.1584 7.50932 17.2484 7.61737 17.3025L7.77944 16.9963ZM17.8278 16.8163C17.6118 16.8163 17.4677 16.9243 17.3776 17.0684V16.8523H16.9995V18.581H17.3776V17.6086C17.3776 17.3205 17.5037 17.1584 17.7378 17.1584C17.8098 17.1584 17.8999 17.1764 17.9719 17.1944L18.08 16.8343C18.0079 16.8163 17.8999 16.8163 17.8278 16.8163ZM13.0017 17.7166C13.0017 18.2389 13.3619 18.617 13.9201 18.617C14.1722 18.617 14.3523 18.563 14.5324 18.419L14.3523 18.1128C14.2083 18.2209 14.0642 18.2749 13.9021 18.2749C13.596 18.2749 13.3799 18.0588 13.3799 17.7166C13.3799 17.3925 13.596 17.1764 13.9021 17.1584C14.0642 17.1584 14.2083 17.2124 14.3523 17.3205L14.5324 17.0143C14.3523 16.8703 14.1722 16.8163 13.9201 16.8163C13.3619 16.8163 13.0017 17.1944 13.0017 17.7166ZM16.4953 17.7166V16.8523H16.1171V17.0684C15.991 16.9063 15.811 16.8163 15.5769 16.8163C15.0906 16.8163 14.7125 17.1944 14.7125 17.7166C14.7125 18.2389 15.0906 18.617 15.5769 18.617C15.829 18.617 16.009 18.527 16.1171 18.3649V18.581H16.4953V17.7166ZM15.1087 17.7166C15.1087 17.4105 15.3067 17.1584 15.6309 17.1584C15.937 17.1584 16.1531 17.3925 16.1531 17.7166C16.1531 18.0228 15.937 18.2749 15.6309 18.2749C15.3067 18.2569 15.1087 18.0228 15.1087 17.7166ZM10.5887 16.8163C10.0845 16.8163 9.7243 17.1764 9.7243 17.7166C9.7243 18.2569 10.0845 18.617 10.6067 18.617C10.8588 18.617 11.1109 18.545 11.309 18.3829L11.1289 18.1128C10.9848 18.2209 10.8048 18.2929 10.6247 18.2929C10.3906 18.2929 10.1565 18.1849 10.1025 17.8787H11.381V17.7347C11.399 17.1764 11.0749 16.8163 10.5887 16.8163ZM10.5887 17.1404C10.8228 17.1404 10.9848 17.2845 11.0209 17.5546H10.1205C10.1565 17.3205 10.3186 17.1404 10.5887 17.1404ZM19.9708 17.7166V16.168H19.5926V17.0684C19.4666 16.9063 19.2865 16.8163 19.0524 16.8163C18.5662 16.8163 18.188 17.1944 18.188 17.7166C18.188 18.2389 18.5662 18.617 19.0524 18.617C19.3045 18.617 19.4846 18.527 19.5926 18.3649V18.581H19.9708V17.7166ZM18.5842 17.7166C18.5842 17.4105 18.7823 17.1584 19.1064 17.1584C19.4125 17.1584 19.6286 17.3925 19.6286 17.7166C19.6286 18.0228 19.4125 18.2749 19.1064 18.2749C18.7823 18.2569 18.5842 18.0228 18.5842 17.7166ZM5.94264 17.7166V16.8523H5.56447V17.0684C5.43842 16.9063 5.25834 16.8163 5.02424 16.8163C4.53802 16.8163 4.15986 17.1944 4.15986 17.7166C4.15986 18.2389 4.53802 18.617 5.02424 18.617C5.27635 18.617 5.45643 18.527 5.56447 18.3649V18.581H5.94264V17.7166ZM4.53802 17.7166C4.53802 17.4105 4.73611 17.1584 5.06025 17.1584C5.36639 17.1584 5.58248 17.3925 5.58248 17.7166C5.58248 18.0228 5.36639 18.2749 5.06025 18.2749C4.73611 18.2569 4.53802 18.0228 4.53802 17.7166Z" fill="black"/><path d="M13.3258 3.72461H7.65332V13.9171H13.3258V3.72461Z" fill="#FF5F00"/><path d="M8.01351 8.82073C8.01351 6.74982 8.98594 4.91302 10.4806 3.7245C9.38211 2.86012 7.9955 2.33789 6.48284 2.33789C2.89927 2.33789 0 5.23716 0 8.82073C0 12.4043 2.89927 15.3036 6.48284 15.3036C7.9955 15.3036 9.38211 14.7813 10.4806 13.917C8.98594 12.7465 8.01351 10.8916 8.01351 8.82073Z" fill="#EB001B"/><path d="M20.9791 8.82073C20.9791 12.4043 18.0799 15.3036 14.4963 15.3036C12.9836 15.3036 11.597 14.7813 10.4985 13.917C12.0112 12.7284 12.9656 10.8916 12.9656 8.82073C12.9656 6.74982 11.9932 4.91302 10.4985 3.7245C11.597 2.86012 12.9836 2.33789 14.4963 2.33789C18.0799 2.33789 20.9791 5.25517 20.9791 8.82073Z" fill="#F79E1B"/></svg>