<?xml version="1.0" encoding="utf-8"?><svg xmlns="http://www.w3.org/2000/svg" xmlns:xlink="http://www.w3.org/1999/xlink"><symbol viewBox="0 0 20 18" id="business" xmlns="http://www.w3.org/2000/svg"><path d="M18 4H14V2L12 0H8L6 2V4H2C0.9 4 0 4.9 0 6V11C0 11.75 0.4 12.38 1 12.73V16C1 17.11 1.89 18 3 18H17C18.11 18 19 17.11 19 16V12.72C19.59 12.37 20 11.73 20 11V6C20 4.9 19.1 4 18 4ZM8 2H12V4H8V2ZM2 6H18V11H13V8H7V11H2V6ZM11 12H9V10H11V12ZM17 16H3V13H7V14H13V13H17V16Z"/></symbol><symbol viewBox="0 0 21 20" id="cart" xmlns="http://www.w3.org/2000/svg"><path d="M14.55 11C15.3 11 15.96 10.59 16.3 9.97L19.88 3.48C20.25 2.82 19.77 2 19.01 2H4.21L3.27 0H0V2H2L5.6 9.59L4.25 12.03C3.52 13.37 4.48 15 6 15H18V13H6L7.1 11H14.55ZM5.16 4H17.31L14.55 9H7.53L5.16 4ZM6 16C4.9 16 4.01 16.9 4.01 18C4.01 19.1 4.9 20 6 20C7.1 20 8 19.1 8 18C8 16.9 7.1 16 6 16ZM16 16C14.9 16 14.01 16.9 14.01 18C14.01 19.1 14.9 20 16 20C17.1 20 18 19.1 18 18C18 16.9 17.1 16 16 16Z"/></symbol><symbol viewBox="0 0 20 13" id="catalog" xmlns="http://www.w3.org/2000/svg"><path d="M5 3H0V1H5V3ZM5 6H0V8H5V6ZM18.59 13L14.76 9.17C13.96 9.69 13.02 10 12 10C9.24 10 7 7.76 7 5C7 2.24 9.24 0 12 0C14.76 0 17 2.24 17 5C17 6.02 16.69 6.96 16.17 7.75L20 11.59L18.59 13ZM15 5C15 3.35 13.65 2 12 2C10.35 2 9 3.35 9 5C9 6.65 10.35 8 12 8C13.65 8 15 6.65 15 5ZM0 13H10V11H0V13Z"/></symbol><symbol viewBox="0 0 18 22" id="cleaning" xmlns="http://www.w3.org/2000/svg"><path d="M13 10H12V2C12 0.9 11.1 0 10 0H8C6.9 0 6 0.9 6 2V10H5C2.24 10 0 12.24 0 15V22H18V15C18 12.24 15.76 10 13 10ZM8 2H10V10H8V2ZM16 20H14V17C14 16.45 13.55 16 13 16C12.45 16 12 16.45 12 17V20H10V17C10 16.45 9.55 16 9 16C8.45 16 8 16.45 8 17V20H6V17C6 16.45 5.55 16 5 16C4.45 16 4 16.45 4 17V20H2V15C2 13.35 3.35 12 5 12H13C14.65 12 16 13.35 16 15V20Z"/></symbol><symbol viewBox="0 0 18 18" id="coffee" xmlns="http://www.w3.org/2000/svg"><path d="M14.5 0H2C0.9 0 0 0.9 0 2V7.71C0 11.54 2.95 14.89 6.78 15C10.74 15.12 14 11.94 14 8V7H14.5C16.43 7 18 5.43 18 3.5C18 1.57 16.43 0 14.5 0ZM12 2V5H2V2H12ZM12 7V8C12 10.76 9.76 13 7 13C4.24 13 2 10.76 2 8V7H12ZM14.5 5H14V2H14.5C15.33 2 16 2.67 16 3.5C16 4.33 15.33 5 14.5 5ZM0 16H16V18H0V16Z"/></symbol><symbol viewBox="0 0 15 20" id="combine" xmlns="http://www.w3.org/2000/svg"><path d="M13.13 13.13L15 1H11V0H7V1H2C0.9 1 0 1.9 0 3V7C0 8.1 0.9 9 2 9H4.23L4.87 13.13C3.74 14.05 3 15.43 3 17V18C3 19.1 3.9 20 5 20H13C14.1 20 15 19.1 15 18V17C15 15.43 14.26 14.05 13.13 13.13ZM2 7V3H3.31L3.93 7H2ZM12.67 3L11.29 12H6.72L5.33 3H12.67ZM13 18H5V17C5 15.35 6.35 14 8 14H10C11.65 14 13 15.35 13 17V18Z"/><path d="M9 17C9.55228 17 10 16.5523 10 16C10 15.4477 9.55228 15 9 15C8.44771 15 8 15.4477 8 16C8 16.5523 8.44771 17 9 17Z"/></symbol><symbol viewBox="0 0 24 16" id="computer" xmlns="http://www.w3.org/2000/svg"><path d="M20 14C21.1 14 21.99 13.1 21.99 12L22 2C22 0.9 21.1 0 20 0H4C2.9 0 2 0.9 2 2V12C2 13.1 2.9 14 4 14H0V16H24V14H20ZM4 2H20V12H4V2Z"/></symbol><symbol viewBox="0 0 21 20" id="favorite" xmlns="http://www.w3.org/2000/svg"><path d="M15.225 0C13.398 0 11.6445 0.882834 10.5 2.27793C9.3555 0.882834 7.602 0 5.775 0C2.541 0 0 2.6376 0 5.99455C0 10.1144 3.57 13.4714 8.9775 18.5722L10.5 20L12.0225 18.5613C17.43 13.4714 21 10.1144 21 5.99455C21 2.6376 18.459 0 15.225 0ZM10.605 16.9482L10.5 17.0572L10.395 16.9482C5.397 12.2507 2.1 9.14441 2.1 5.99455C2.1 3.81471 3.675 2.17984 5.775 2.17984C7.392 2.17984 8.967 3.25886 9.5235 4.75204H11.487C12.033 3.25886 13.608 2.17984 15.225 2.17984C17.325 2.17984 18.9 3.81471 18.9 5.99455C18.9 9.14441 15.603 12.2507 10.605 16.9482Z"/></symbol><symbol viewBox="0 0 18 18" id="filters" xmlns="http://www.w3.org/2000/svg"><path d="M0 14V16H6V14H0ZM0 2V4H10V2H0ZM10 18V16H18V14H10V12H8V18H10ZM4 6V8H0V10H4V12H6V6H4ZM18 10V8H8V10H18ZM12 6H14V4H18V2H14V0H12V6Z" fill="#7F7F7F"/></symbol><symbol viewBox="0 0 22 16" id="gadgets" xmlns="http://www.w3.org/2000/svg"><path d="M2 2h18V0H2C.9 0 0 .9 0 2v12c0 1.1.9 2 2 2h4v-2H2V2Zm10 6H8v1.78c-.61.55-1 1.33-1 2.22 0 .89.39 1.67 1 2.22V16h4v-1.78c.61-.55 1-1.34 1-2.22 0-.88-.39-1.67-1-2.22V8Zm-2 5.5c-.83 0-1.5-.67-1.5-1.5s.67-1.5 1.5-1.5 1.5.67 1.5 1.5-.67 1.5-1.5 1.5ZM21 4h-6c-.5 0-1 .5-1 1v10c0 .5.5 1 1 1h6c.5 0 1-.5 1-1V5c0-.5-.5-1-1-1Zm-1 10h-4V6h4v8Z"/></symbol><symbol viewBox="0 0 20 14" id="gamepad" xmlns="http://www.w3.org/2000/svg"><path d="M19.5801 11.09L18.4901 3.43C18.2101 1.46 16.5201 0 14.5301 0H5.47006C3.48006 0 1.79007 1.46 1.51007 3.43L0.420065 11.09C0.200065 12.63 1.39007 14 2.94007 14C3.62007 14 4.26006 13.73 4.74006 13.25L7.00006 11H13.0001L15.2501 13.25C15.7301 13.73 16.3801 14 17.0501 14C18.6101 14 19.8001 12.63 19.5801 11.09ZM17.4801 11.81C17.4001 11.9 17.2701 12 17.0601 12C16.9101 12 16.7701 11.94 16.6701 11.84L13.8301 9H6.17006L3.33007 11.84C3.23007 11.94 3.09007 12 2.94007 12C2.73007 12 2.60006 11.9 2.52007 11.81C2.44007 11.72 2.36006 11.58 2.39006 11.37L3.48007 3.71C3.63007 2.74 4.48006 2 5.47006 2H14.5301C15.5201 2 16.3701 2.74 16.5101 3.72L17.6001 11.38C17.6301 11.58 17.5501 11.72 17.4801 11.81Z"/><path d="M7.00006 3H6.00006V5H4.00007V6H6.00006V8H7.00006V6H9.00006V5H7.00006V3Z"/><path d="M15.0001 8C15.5523 8 16.0001 7.55228 16.0001 7C16.0001 6.44772 15.5523 6 15.0001 6C14.4478 6 14.0001 6.44772 14.0001 7C14.0001 7.55228 14.4478 8 15.0001 8Z"/><path d="M13.0001 5C13.5523 5 14.0001 4.55228 14.0001 4C14.0001 3.44772 13.5523 3 13.0001 3C12.4478 3 12.0001 3.44772 12.0001 4C12.0001 4.55228 12.4478 5 13.0001 5Z"/></symbol><symbol viewBox="0 0 16 20" id="geoloc" xmlns="http://www.w3.org/2000/svg"><path d="M8 10C6.9 10 6 9.1 6 8C6 6.9 6.9 6 8 6C9.1 6 10 6.9 10 8C10 9.1 9.1 10 8 10ZM14 8.2C14 4.57 11.35 2 8 2C4.65 2 2 4.57 2 8.2C2 10.54 3.95 13.64 8 17.34C12.05 13.64 14 10.54 14 8.2ZM8 0C12.2 0 16 3.22 16 8.2C16 11.52 13.33 15.45 8 20C2.67 15.45 0 11.52 0 8.2C0 3.22 3.8 0 8 0Z"/></symbol><symbol viewBox="0 0 16 18" id="home" xmlns="http://www.w3.org/2000/svg"><path d="M8 2.5L14 7V16H2V7L8 2.5ZM8 0L0 6V18H16V6L8 0Z"/></symbol><symbol viewBox="0 0 20 20" id="logged-in" xmlns="http://www.w3.org/2000/svg"><circle cx="10" cy="10" r="10" fill="#AAE4E8"/><path d="M10 0C4.48 0 0 4.48 0 10C0 15.52 4.48 20 10 20C15.52 20 20 15.52 20 10C20 4.48 15.52 0 10 0ZM5.07 16.28C5.5 15.38 8.12 14.5 10 14.5C11.88 14.5 14.51 15.38 14.93 16.28C13.57 17.36 11.86 18 10 18C8.14 18 6.43 17.36 5.07 16.28ZM16.36 14.83C14.93 13.09 11.46 12.5 10 12.5C8.54 12.5 5.07 13.09 3.64 14.83C2.62 13.49 2 11.82 2 10C2 5.59 5.59 2 10 2C14.41 2 18 5.59 18 10C18 11.82 17.38 13.49 16.36 14.83V14.83ZM10 4C8.06 4 6.5 5.56 6.5 7.5C6.5 9.44 8.06 11 10 11C11.94 11 13.5 9.44 13.5 7.5C13.5 5.56 11.94 4 10 4ZM10 9C9.17 9 8.5 8.33 8.5 7.5C8.5 6.67 9.17 6 10 6C10.83 6 11.5 6.67 11.5 7.5C11.5 8.33 10.83 9 10 9Z"/></symbol><symbol viewBox="0 0 20 20" id="logged-out" xmlns="http://www.w3.org/2000/svg"><path d="M10 0C4.48 0 0 4.48 0 10C0 15.52 4.48 20 10 20C15.52 20 20 15.52 20 10C20 4.48 15.52 0 10 0ZM5.07 16.28C5.5 15.38 8.12 14.5 10 14.5C11.88 14.5 14.51 15.38 14.93 16.28C13.57 17.36 11.86 18 10 18C8.14 18 6.43 17.36 5.07 16.28ZM16.36 14.83C14.93 13.09 11.46 12.5 10 12.5C8.54 12.5 5.07 13.09 3.64 14.83C2.62 13.49 2 11.82 2 10C2 5.59 5.59 2 10 2C14.41 2 18 5.59 18 10C18 11.82 17.38 13.49 16.36 14.83ZM10 4C8.06 4 6.5 5.56 6.5 7.5C6.5 9.44 8.06 11 10 11C11.94 11 13.5 9.44 13.5 7.5C13.5 5.56 11.94 4 10 4ZM10 9C9.17 9 8.5 8.33 8.5 7.5C8.5 6.67 9.17 6 10 6C10.83 6 11.5 6.67 11.5 7.5C11.5 8.33 10.83 9 10 9Z"/></symbol><symbol viewBox="0 0 16 16" id="percent" xmlns="http://www.w3.org/2000/svg"><path d="M3.5 0C1.57 0 0 1.57 0 3.5C0 5.43 1.57 7 3.5 7C5.43 7 7 5.43 7 3.5C7 1.57 5.43 0 3.5 0ZM3.5 5C2.67 5 2 4.33 2 3.5C2 2.67 2.67 2 3.5 2C4.33 2 5 2.67 5 3.5C5 4.33 4.33 5 3.5 5ZM12.5 9C10.57 9 9 10.57 9 12.5C9 14.43 10.57 16 12.5 16C14.43 16 16 14.43 16 12.5C16 10.57 14.43 9 12.5 9ZM12.5 14C11.67 14 11 13.33 11 12.5C11 11.67 11.67 11 12.5 11C13.33 11 14 11.67 14 12.5C14 13.33 13.33 14 12.5 14ZM1.41 16L0 14.59L14.59 0L16 1.41L1.41 16Z"/></symbol><symbol viewBox="0 0 22 16" id="shipping" xmlns="http://www.w3.org/2000/svg"><path d="M19 4H16V0H2C0.9 0 0 0.9 0 2V13H2C2 14.66 3.34 16 5 16C6.66 16 8 14.66 8 13H14C14 14.66 15.34 16 17 16C18.66 16 20 14.66 20 13H22V8L19 4ZM18.04 6L20 8V10H16V8V6H18.04ZM5 14C4.45 14 4 13.55 4 13C4 12.45 4.45 12 5 12C5.55 12 6 12.45 6 13C6 13.55 5.55 14 5 14ZM7.22 11C6.67 10.39 5.89 10 5 10C4.11 10 3.33 10.39 2.78 11H2V2H14V11H7.22ZM17 14C16.45 14 16 13.55 16 13C16 12.45 16.45 12 17 12C17.55 12 18 12.45 18 13C18 13.55 17.55 14 17 14Z"/></symbol><symbol viewBox="0 0 20 20" id="spa" xmlns="http://www.w3.org/2000/svg"><path d="M13.49 7.63C13.31 4.84 12.18 2.12 10.06 0C7.92 2.14 6.74 4.86 6.51 7.63C7.79 8.31 8.97 9.19 10 10.26C11.03 9.2 12.21 8.32 13.49 7.63ZM10.05 3.19C10.68 4.22 11.12 5.37 11.35 6.57C10.88 6.87 10.44 7.2 10.01 7.55C9.59 7.21 9.14 6.88 8.68 6.58C8.93 5.38 9.39 4.23 10.05 3.19ZM10 13.45C9.18 12.2 8.14 11.11 6.94 10.25C6.81 10.16 6.67 10.09 6.54 9.99C6.67 10.08 6.81 10.16 6.93 10.24C4.98 8.83 2.59 8 0 8C0 13.32 3.36 17.82 8.03 19.49C8.66 19.72 9.32 19.89 10 20C10.68 19.88 11.33 19.71 11.97 19.49C16.64 17.82 20 13.32 20 8C15.82 8 12.15 10.17 10 13.45ZM11.32 17.6C10.88 17.75 10.44 17.87 9.99 17.97C9.55 17.88 9.12 17.76 8.71 17.61C5.42 16.43 3.01 13.62 2.26 10.26C3.36 10.52 4.41 10.97 5.38 11.59L5.36 11.6C5.49 11.69 5.62 11.78 5.75 11.85L5.82 11.89C6.81 12.61 7.66 13.5 8.33 14.54L10 17.1L11.67 14.55C12.36 13.5 13.22 12.6 14.2 11.89L14.27 11.84C14.36 11.79 14.45 11.73 14.54 11.67L14.53 11.65C15.51 11 16.6 10.52 17.74 10.25C16.99 13.62 14.59 16.43 11.32 17.6ZM6.99 10.28C6.97 10.27 6.95 10.25 6.94 10.24C6.94 10.24 6.95 10.24 6.95 10.25C6.96 10.26 6.97 10.27 6.99 10.28Z"/></symbol><symbol viewBox="0 0 18 16" id="store" xmlns="http://www.w3.org/2000/svg"><path d="M15.36 5L15.96 8H2.04L2.64 5H15.36ZM17 0H1V2H17V0ZM17 3H1L0 8V10H1V16H11V10H15V16H17V10H18V8L17 3ZM3 14V10H9V14H3Z"/></symbol><symbol viewBox="0 0 22 18" id="tv" xmlns="http://www.w3.org/2000/svg"><path d="M20 0H2C0.9 0 0 0.9 0 2V14C0 15.1 0.9 16 2 16H7V18H15V16H20C21.1 16 21.99 15.1 21.99 14L22 2C22 0.9 21.1 0 20 0ZM20 14H2V2H20V14Z"/></symbol><symbol viewBox="0 0 18 18" id="view-grid" xmlns="http://www.w3.org/2000/svg"><path d="M0 0V8H8V0H0ZM6 6H2V2H6V6ZM0 10V18H8V10H0ZM6 16H2V12H6V16ZM10 0V8H18V0H10ZM16 6H12V2H16V6ZM10 10V18H18V10H10ZM16 16H12V12H16V16Z"/></symbol><symbol viewBox="0 0 18 14" id="view-list" xmlns="http://www.w3.org/2000/svg"><path d="M0 0V14H18V0H0ZM4 2V4H2V2H4ZM2 8V6H4V8H2ZM2 10H4V12H2V10ZM16 12H6V10H16V12ZM16 8H6V6H16V8ZM16 4H6V2H16V4Z"/></symbol></svg>