<svg width="26" height="26" viewBox="0 0 26 26" fill="none" xmlns="http://www.w3.org/2000/svg"><path d="M13 26C20.1797 26 26 20.1797 26 13C26 5.8203 20.1797 0 13 0C5.8203 0 0 5.8203 0 13C0 20.1797 5.8203 26 13 26Z" fill="#6F3FAA"/><path d="M19.8772 9.1369L19.873 9.11974C19.5256 7.71548 17.9596 6.2087 16.5215 5.89523L16.5053 5.89188C14.1792 5.44815 11.8207 5.44815 9.49511 5.89188L9.4784 5.89523C8.04078 6.2087 6.47474 7.71558 6.12694 9.11974L6.12308 9.1369C5.69367 11.0979 5.69367 13.0867 6.12308 15.0477L6.12694 15.0649C6.45996 16.4092 7.90931 17.8468 9.29376 18.2421V19.8096C9.29376 20.377 9.98515 20.6557 10.3783 20.2462L11.9665 18.5954C12.311 18.6146 12.6556 18.6254 13.0002 18.6254C14.171 18.6254 15.3425 18.5146 16.5053 18.2928L16.5215 18.2895C17.9596 17.976 19.5256 16.4691 19.8729 15.065L19.8772 15.0478C20.3066 13.0867 20.3066 11.098 19.8772 9.1369ZM18.6203 14.7634C18.3884 15.6796 17.1994 16.8185 16.2547 17.0289C15.0179 17.2641 13.7713 17.3646 12.5259 17.3302C12.5012 17.3294 12.4773 17.3391 12.4601 17.3569C12.2834 17.5383 11.3005 18.5473 11.3005 18.5473L10.0672 19.8132C9.97697 19.9072 9.81853 19.8432 9.81853 19.7134V17.1167C9.81853 17.0738 9.78791 17.0373 9.74576 17.029C9.74551 17.0289 9.74531 17.0289 9.74505 17.0289C8.80032 16.8184 7.61173 15.6795 7.37941 14.7634C6.99291 12.9908 6.99291 11.1938 7.37941 9.42128C7.61173 8.50513 8.80032 7.36621 9.74505 7.15577C11.9051 6.74495 14.0952 6.74495 16.2548 7.15577C17.1999 7.36621 18.3885 8.50513 18.6204 9.42128C19.0073 11.1939 19.0073 12.9908 18.6203 14.7634Z" fill="white"/><path d="M15.0552 15.9621C14.91 15.918 14.7716 15.8884 14.643 15.8351C13.3109 15.2825 12.0851 14.5695 11.1141 13.4767C10.5619 12.8552 10.1297 12.1536 9.76439 11.411C9.59112 11.0589 9.44512 10.693 9.29628 10.3294C9.1606 9.99794 9.36047 9.65547 9.57091 9.40563C9.7684 9.17117 10.0226 8.99181 10.2978 8.85953C10.5126 8.75634 10.7245 8.81585 10.8814 8.9979C11.2205 9.39156 11.5321 9.80533 11.7843 10.2616C11.9394 10.5423 11.8968 10.8854 11.6157 11.0764C11.5473 11.1228 11.4851 11.1773 11.4214 11.2297C11.3656 11.2757 11.3131 11.3221 11.2748 11.3843C11.2048 11.4981 11.2015 11.6324 11.2465 11.7562C11.5932 12.7089 12.1775 13.4498 13.1365 13.8489C13.29 13.9127 13.444 13.987 13.6209 13.9664C13.9169 13.9319 14.0128 13.6071 14.2203 13.4374C14.4231 13.2716 14.6822 13.2694 14.9007 13.4076C15.1192 13.546 15.3309 13.6944 15.5415 13.8444C15.7481 13.9917 15.9539 14.1356 16.1444 14.3036C16.3278 14.465 16.3909 14.6768 16.2876 14.8958C16.0987 15.297 15.8238 15.6307 15.4272 15.8438C15.3152 15.9038 15.1815 15.9232 15.0552 15.9621C14.91 15.918 15.1815 15.9232 15.0552 15.9621Z" fill="white"/><path d="M13.0037 8.40059C14.7459 8.44944 16.177 9.60568 16.4837 11.3282C16.5359 11.6217 16.5545 11.9217 16.5778 12.2197C16.5876 12.3449 16.5166 12.464 16.3814 12.4656C16.2418 12.4673 16.1789 12.3504 16.1698 12.2252C16.1519 11.9773 16.1394 11.7282 16.1053 11.4825C15.9249 10.1845 14.89 9.11077 13.5981 8.88037C13.4037 8.84569 13.2048 8.8366 13.0078 8.81593C12.8834 8.80288 12.7204 8.79536 12.6928 8.64058C12.6697 8.51084 12.7792 8.40755 12.9027 8.4009C12.9362 8.39892 12.97 8.40049 13.0037 8.40059C14.746 8.44944 12.97 8.40049 13.0037 8.40059Z" fill="white"/><path d="M15.6516 11.8333C15.6487 11.8551 15.6472 11.9063 15.6344 11.9544C15.5882 12.1293 15.323 12.1512 15.262 11.9747C15.2438 11.9224 15.2411 11.8627 15.241 11.8064C15.2404 11.4374 15.1603 11.0687 14.9741 10.7476C14.7828 10.4176 14.4905 10.1403 14.1478 9.97236C13.9405 9.8709 13.7164 9.80778 13.4892 9.77026C13.39 9.7538 13.2896 9.7439 13.1898 9.72999C13.0689 9.71318 13.0043 9.63614 13.0101 9.51701C13.0155 9.40539 13.0971 9.32501 13.2187 9.33196C13.6185 9.35461 14.0048 9.44114 14.3603 9.62934C15.0831 10.0122 15.4961 10.6164 15.6166 11.4232C15.6221 11.4598 15.6308 11.496 15.6336 11.5327C15.6404 11.6232 15.6447 11.7138 15.6516 11.8333C15.6487 11.855 15.6447 11.7138 15.6516 11.8333Z" fill="white"/><path d="M14.5679 11.7908C14.4221 11.7935 14.3441 11.7127 14.3291 11.5792C14.3187 11.4861 14.3103 11.3916 14.2881 11.3009C14.2443 11.1223 14.1494 10.9569 13.9992 10.8474C13.9283 10.7958 13.8479 10.7582 13.7638 10.7338C13.6569 10.7029 13.5458 10.7114 13.4392 10.6853C13.3233 10.6569 13.2593 10.5631 13.2775 10.4544C13.294 10.3555 13.3902 10.2783 13.4983 10.2862C14.1738 10.3349 14.6566 10.6842 14.7255 11.4794C14.7304 11.5355 14.7361 11.5948 14.7237 11.6486C14.7023 11.7403 14.6342 11.7864 14.5679 11.7908C14.4221 11.7934 14.6342 11.7864 14.5679 11.7908Z" fill="white"/><path d="M15.055 15.9618C15.1813 15.9229 14.9098 15.9177 15.055 15.9618V15.9618Z" fill="white"/><path d="M13.0049 8.40039C13.0064 8.40039 13.0078 8.40054 13.0092 8.40054C13.1059 8.404 14.6785 8.44731 13.0049 8.40039Z" fill="white"/><path d="M15.6513 11.8328C15.6444 11.7133 15.6484 11.8545 15.6513 11.8328V11.8328Z" fill="white"/><path d="M14.5684 11.7907C14.5707 11.7905 14.573 11.7893 14.5753 11.7891C14.5689 11.7891 14.5591 11.7892 14.5491 11.7896C14.5556 11.7897 14.5615 11.7908 14.5684 11.7907Z" fill="white"/><path d="M14.5677 11.7911C14.5612 11.7912 14.5554 11.7902 14.5491 11.79C14.5175 11.7909 14.485 11.7926 14.5677 11.7911Z" fill="white"/><path d="M14.5745 11.7891C14.5721 11.7893 14.5699 11.7905 14.5676 11.7907C14.5853 11.7895 14.5838 11.7891 14.5745 11.7891Z" fill="white"/></svg>