<svg width="35" height="35" viewBox="0 0 35 35" fill="none" xmlns="http://www.w3.org/2000/svg">
<circle cx="17.5" cy="17.5" r="17.5" fill="#EFF4F4"/>
<path d="M13.1467 10.7778C13.2 11.5689 13.3333 12.3422 13.5467 13.08L12.48 14.1467C12.1156 13.08 11.8844 11.9511 11.8044 10.7778H13.1467ZM21.9111 21.4622C22.6667 21.6756 23.44 21.8089 24.2222 21.8622V23.1867C23.0489 23.1067 21.92 22.8756 20.8444 22.52L21.9111 21.4622ZM14 9H10.8889C10.4 9 10 9.4 10 9.88889C10 18.2356 16.7644 25 25.1111 25C25.6 25 26 24.6 26 24.1111V21.0089C26 20.52 25.6 20.12 25.1111 20.12C24.0089 20.12 22.9333 19.9422 21.9378 19.6133C21.8489 19.5778 21.7511 19.5689 21.6622 19.5689C21.4311 19.5689 21.2089 19.6578 21.0311 19.8267L19.0756 21.7822C16.56 20.4933 14.4978 18.44 13.2178 15.9244L15.1733 13.9689C15.4222 13.72 15.4933 13.3733 15.3956 13.0622C15.0667 12.0667 14.8889 11 14.8889 9.88889C14.8889 9.4 14.4889 9 14 9Z" fill="#00A9B4"/>
</svg>
