<svg width="21" height="22" viewBox="0 0 21 22" fill="none" xmlns="http://www.w3.org/2000/svg">
<path d="M6 22C7.10457 22 8 21.1046 8 20C8 18.8954 7.10457 18 6 18C4.89543 18 4 18.8954 4 20C4 21.1046 4.89543 22 6 22Z" fill="#00A9B4"/>
<path d="M16 22C17.1046 22 18 21.1046 18 20C18 18.8954 17.1046 18 16 18C14.8954 18 14 18.8954 14 20C14 21.1046 14.8954 22 16 22Z" fill="#00A9B4"/>
<path d="M19 4H18.4L17.3 6L14.5 11H7.5L5.2 6L4.2 4L3.3 2H0V4H2L5.6 11.6L4.3 14C3.6 15.3 4.5 17 6.1 17H18.1V15H6L7.1 13H14.6C15.4 13 16 12.6 16.4 12L20 5.5C20.3 4.8 19.8 4 19 4Z" fill="#00A9B4"/>
<path d="M12 8H10V5H7V3H10V0H12V3H15V5H12V8Z" fill="#00A9B4"/>
</svg>
