<svg width="26" height="26" viewBox="0 0 26 26" fill="none" xmlns="http://www.w3.org/2000/svg">
<path d="M13 0C5.82024 0 0 5.82024 0 13C0 20.1798 5.82024 26 13 26C20.1798 26 26 20.1798 26 13C26 5.82024 20.1798 0 13 0Z" fill="#40B3E0"/>
<path d="M19.3255 7.47831L17.0036 19.1851C17.0036 19.1851 16.6789 19.997 15.7858 19.6073L10.4276 15.4993L8.47922 14.5576L5.19936 13.4534C5.19936 13.4534 4.69601 13.2749 4.64726 12.8852C4.59862 12.4955 5.21561 12.2845 5.21561 12.2845L18.2538 7.16977C18.2538 7.16977 19.3255 6.69892 19.3255 7.47831Z" fill="white"/>
<path d="M10.0158 19.0533C10.0158 19.0533 9.85938 19.0387 9.66448 18.4216C9.46969 17.8046 8.47925 14.5572 8.47925 14.5572L16.3541 9.55628C16.3541 9.55628 16.8088 9.28023 16.7925 9.55628C16.7925 9.55628 16.8737 9.60493 16.6301 9.83223C16.3866 10.0596 10.4439 15.4015 10.4439 15.4015" fill="#D2E5F1"/>
<path d="M12.4822 17.0739L10.3628 19.0063C10.3628 19.0063 10.1972 19.132 10.0159 19.0532L10.4217 15.4639" fill="#B5CFE4"/>
</svg>
