<svg width="39" height="13" viewBox="0 0 39 13" fill="none" xmlns="http://www.w3.org/2000/svg">
<path d="M13.9153 12.1956L15.8399 0.901783H18.9182L16.9922 12.1956H13.9153ZM28.114 1.14524C27.5042 0.916437 26.5485 0.670898 25.3551 0.670898C22.3132 0.670898 20.1707 2.20269 20.1523 4.39805C20.1352 6.02088 21.682 6.92624 22.8497 7.46641C24.048 8.02015 24.4508 8.37311 24.445 8.86736C24.4373 9.62445 23.4881 9.97015 22.6032 9.97015C21.3712 9.97015 20.7166 9.79897 19.7056 9.37747L19.3088 9.19799L18.8769 11.7262C19.5959 12.0416 20.9254 12.3146 22.306 12.3288C25.542 12.3288 27.6426 10.8145 27.6665 8.47003C27.678 7.18522 26.8579 6.20763 25.0819 5.40149C24.0059 4.87903 23.3469 4.5304 23.3539 4.00136C23.3539 3.53192 23.9117 3.02994 25.117 3.02994C26.1235 3.0143 26.8528 3.23382 27.421 3.46263L27.6968 3.59296L28.114 1.14524ZM36.0357 0.901609H33.6571C32.9202 0.901609 32.3687 1.10273 32.0451 1.83819L27.4733 12.1882H30.7059C30.7059 12.1882 31.2343 10.7966 31.3538 10.491C31.7071 10.491 34.8474 10.4958 35.2963 10.4958C35.3884 10.8913 35.6708 12.1882 35.6708 12.1882H38.5273L36.0357 0.901264V0.901609ZM32.2617 8.19449C32.5163 7.54378 33.4882 5.03734 33.4882 5.03734C33.4701 5.0674 33.7409 4.38345 33.8963 3.95942L34.1044 4.93315C34.1044 4.93315 34.6938 7.62905 34.817 8.19432H32.2617V8.19449ZM11.302 0.901609L8.28826 8.60353L7.9672 7.0384C7.40609 5.23413 5.65807 3.27934 3.70386 2.30071L6.45965 12.1776L9.71666 12.174L14.563 0.901494L11.302 0.901437" fill="#0E4595"/>
<path d="M5.47615 0.901367H0.512247L0.4729 1.13635C4.33477 2.0712 6.89002 4.33037 7.95098 7.0452L6.87161 1.85519C6.68532 1.14004 6.14486 0.926578 5.47627 0.901655" fill="#F2AE14"/>
</svg>
