<svg width="26" height="26" viewBox="0 0 26 26" fill="none" xmlns="http://www.w3.org/2000/svg">
<path d="M12.9999 25.9999C20.1796 25.9999 25.9999 20.1796 25.9999 12.9999C25.9999 5.82027 20.1796 0 12.9999 0C5.82027 0 0 5.82027 0 12.9999C0 20.1796 5.82027 25.9999 12.9999 25.9999Z" fill="#29A71A"/>
<path d="M5 21L6.12055 17.0245C5.39993 15.8016 5.02063 14.4103 5.02063 12.981C5.02063 8.58024 8.60478 5 13.0104 5C17.416 5 21 8.58024 21 12.981C21 17.3818 17.416 20.9621 13.0104 20.9621C11.6376 20.9621 10.2934 20.6111 9.10427 19.9446L5 21ZM9.31407 18.4926L9.55869 18.6418C10.5954 19.274 11.7891 19.6082 13.0104 19.6082C16.6686 19.6082 19.6447 16.6353 19.6447 12.981C19.6447 9.32681 16.6686 6.35385 13.0104 6.35385C9.35216 6.35385 6.37595 9.32681 6.37595 12.981C6.37595 14.2543 6.73822 15.4908 7.4235 16.5567L7.58823 16.8129L6.94295 19.1024L9.31407 18.4926Z" fill="white"/>
<path d="M10.7699 10.027L10.2587 10.0009C10.0982 9.99265 9.94074 10.0429 9.81931 10.1418C9.57156 10.3435 9.17525 10.7335 9.05362 11.2418C8.87211 11.9996 9.15251 12.9275 9.87846 13.8555C10.6044 14.7835 11.9572 16.2682 14.3493 16.9023C15.1202 17.1067 15.7266 16.9689 16.1945 16.6883C16.565 16.4661 16.8204 16.1095 16.9125 15.7063L16.9941 15.3489C17.0201 15.2353 16.9585 15.1201 16.846 15.0714L15.1185 14.3249C15.0063 14.2765 14.8733 14.3071 14.7979 14.3988L14.1196 15.223C14.0684 15.2852 13.9808 15.3099 13.9016 15.2838C13.4371 15.1308 11.8814 14.52 11.0276 12.9784C10.9906 12.9116 10.9999 12.8304 11.0524 12.7734L11.7005 12.0705C11.7667 11.9987 11.7835 11.8978 11.7437 11.8105L10.999 10.1773C10.9594 10.0904 10.8705 10.0321 10.7699 10.027Z" fill="white"/>
</svg>
