<svg width="20" height="14" viewBox="0 0 20 14" fill="none" xmlns="http://www.w3.org/2000/svg">
<path d="M19.5801 11.09L18.4901 3.43C18.2101 1.46 16.5201 0 14.5301 0H5.47006C3.48006 0 1.79007 1.46 1.51007 3.43L0.420065 11.09C0.200065 12.63 1.39007 14 2.94007 14C3.62007 14 4.26006 13.73 4.74006 13.25L7.00006 11H13.0001L15.2501 13.25C15.7301 13.73 16.3801 14 17.0501 14C18.6101 14 19.8001 12.63 19.5801 11.09ZM17.4801 11.81C17.4001 11.9 17.2701 12 17.0601 12C16.9101 12 16.7701 11.94 16.6701 11.84L13.8301 9H6.17006L3.33007 11.84C3.23007 11.94 3.09007 12 2.94007 12C2.73007 12 2.60006 11.9 2.52007 11.81C2.44007 11.72 2.36006 11.58 2.39006 11.37L3.48007 3.71C3.63007 2.74 4.48006 2 5.47006 2H14.5301C15.5201 2 16.3701 2.74 16.5101 3.72L17.6001 11.38C17.6301 11.58 17.5501 11.72 17.4801 11.81Z"/>
<path d="M7.00006 3H6.00006V5H4.00007V6H6.00006V8H7.00006V6H9.00006V5H7.00006V3Z"/>
<path d="M15.0001 8C15.5523 8 16.0001 7.55228 16.0001 7C16.0001 6.44772 15.5523 6 15.0001 6C14.4478 6 14.0001 6.44772 14.0001 7C14.0001 7.55228 14.4478 8 15.0001 8Z"/>
<path d="M13.0001 5C13.5523 5 14.0001 4.55228 14.0001 4C14.0001 3.44772 13.5523 3 13.0001 3C12.4478 3 12.0001 3.44772 12.0001 4C12.0001 4.55228 12.4478 5 13.0001 5Z"/>
</svg>
